<svg width="44" height="44" viewBox="0 0 44 44" fill="none" xmlns="http://www.w3.org/2000/svg">
<g clip-path="url(#clip0_1_69)">
<path d="M0 21.12C0 11.1639 0 6.1859 3.09295 3.09295C6.1859 0 11.1639 0 21.12 0H22.88C32.8361 0 37.8141 0 40.9071 3.09295C44 6.1859 44 11.1639 44 21.12V22.88C44 32.8361 44 37.8141 40.9071 40.9071C37.8141 44 32.8361 44 22.88 44H21.12C11.1639 44 6.1859 44 3.09295 40.9071C0 37.8141 0 32.8361 0 22.88V21.12Z" fill="#FFC9C6"/>
</g>
<path fill-rule="evenodd" clip-rule="evenodd" d="M12.7645 22.0756C17.4444 20.0839 20.5651 18.7709 22.1265 18.1365C26.5847 16.3252 27.5111 16.0105 28.1149 16.0001C28.2477 15.9978 28.5446 16.03 28.7369 16.1824C28.8993 16.3112 28.944 16.485 28.9654 16.6071C28.9868 16.7291 29.0134 17.0072 28.9923 17.2244C28.7507 19.704 27.7053 25.7213 27.1735 28.4985C26.9484 29.6736 26.5054 30.0677 26.0764 30.1062C25.1441 30.19 24.4362 29.5044 23.5333 28.9262C22.1204 28.0215 21.3222 27.4583 19.9507 26.5755C18.3657 25.5552 19.3932 24.9945 20.2965 24.078C20.5329 23.8382 24.6404 20.1887 24.7199 19.8576C24.7298 19.8162 24.7391 19.6619 24.6452 19.5804C24.5513 19.4989 24.4128 19.5267 24.3128 19.5489C24.1711 19.5803 21.914 21.0376 17.5414 23.9208C16.9007 24.3506 16.3204 24.56 15.8005 24.549C15.2273 24.5369 14.1247 24.2324 13.3051 23.9722C12.2997 23.6529 11.5007 23.4842 11.5703 22.942C11.6065 22.6596 12.0046 22.3708 12.7645 22.0756Z" fill="#E6332A"/>
<defs>
<clipPath id="clip0_1_69">
<rect width="44" height="44" fill="white"/>
</clipPath>
</defs>
</svg>
