<svg width="44" height="44" viewBox="0 0 44 44" fill="none" xmlns="http://www.w3.org/2000/svg">
<path d="M0 21.12C0 11.1639 0 6.18591 3.09295 3.09295C6.18591 0 11.1639 0 21.12 0H22.88C32.8361 0 37.8141 0 40.9071 3.09295C44 6.18591 44 11.1639 44 21.12V22.88C44 32.8361 44 37.8141 40.9071 40.9071C37.8141 44 32.8361 44 22.88 44H21.12C11.1639 44 6.18591 44 3.09295 40.9071C0 37.8141 0 32.8361 0 22.88V21.12Z" fill="#FFC9C6"/>
<path d="M22.9824 30C15.4659 30 11.1786 24.7447 11 16H14.7651C14.8888 22.4184 17.6645 25.1371 19.8631 25.6977V16H23.4086V21.5355C25.5797 21.2973 27.8605 18.7748 28.63 16H32.1754C31.5845 19.4194 29.111 21.9419 27.3521 22.979C29.111 23.8198 31.9282 26.02 33 30H29.0973C28.2591 27.3373 26.1706 25.2773 23.4086 24.997V30H22.9824Z" fill="#E6332A"/>
</svg>
