<svg width="44" height="44" viewBox="0 0 44 44" fill="none" xmlns="http://www.w3.org/2000/svg">
<path d="M0 21.12C0 11.1639 0 6.18591 3.09295 3.09295C6.18591 0 11.1639 0 21.12 0H22.88C32.8361 0 37.8141 0 40.9071 3.09295C44 6.18591 44 11.1639 44 21.12V22.88C44 32.8361 44 37.8141 40.9071 40.9071C37.8141 44 32.8361 44 22.88 44H21.12C11.1639 44 6.18591 44 3.09295 40.9071C0 37.8141 0 32.8361 0 22.88V21.12Z" fill="#FFC9C6"/>
<g clip-path="url(#clip0_101_30)">
<path fill-rule="evenodd" clip-rule="evenodd" d="M29.1526 15.1901C28.2117 14.2474 27.0921 13.5 25.8588 12.991C24.6255 12.4821 23.303 12.2218 21.9679 12.2251C16.3696 12.2251 11.8121 16.7598 11.8098 22.3339C11.8098 24.1154 12.2771 25.854 13.1653 27.3877L11.725 32.6251L17.1095 31.2186C18.599 32.0256 20.2676 32.4487 21.9634 32.4494H21.9679C27.5652 32.4494 32.1227 27.9147 32.1249 22.3407C32.1288 21.0124 31.8681 19.6966 31.3579 18.4693C30.8477 17.2419 30.0982 16.1274 29.1526 15.1901ZM21.9679 30.7434H21.9646C20.4524 30.7436 18.9681 30.3387 17.6673 29.5712L17.3596 29.3888L14.1644 30.2232L15.0163 27.1231L14.8161 26.8055C13.9707 25.466 13.5231 23.9158 13.5251 22.3339C13.5274 17.7012 17.3143 13.9323 21.9713 13.9323C23.0804 13.9298 24.179 14.1463 25.2035 14.5692C26.228 14.9921 27.158 15.6131 27.9397 16.3961C28.7256 17.1754 29.3486 18.102 29.7725 19.1223C30.1965 20.1427 30.413 21.2365 30.4097 22.3407C30.4074 26.9733 26.6205 30.7434 21.9679 30.7434ZM26.599 24.4498C26.3444 24.3225 25.0975 23.7122 24.8644 23.6278C24.6325 23.5433 24.4639 23.5016 24.2942 23.7539C24.1245 24.0061 23.638 24.5748 23.4897 24.7437C23.3415 24.9126 23.1933 24.9329 22.9399 24.8068C22.6864 24.6806 21.8684 24.4138 20.8987 23.5534C20.1441 22.8834 19.6349 22.0569 19.4867 21.8035C19.3385 21.5502 19.4708 21.4139 19.5987 21.2878C19.713 21.1752 19.8521 20.9927 19.9789 20.8452C20.1056 20.6977 20.1475 20.593 20.2323 20.4241C20.3172 20.2552 20.2753 20.1077 20.2108 19.9815C20.1475 19.8543 19.6394 18.6111 19.4279 18.1055C19.2231 17.6156 19.0137 17.681 18.8576 17.6742C18.6959 17.6676 18.5341 17.6646 18.3722 17.6652C18.2435 17.6685 18.1169 17.6982 18.0003 17.7524C17.8836 17.8067 17.7795 17.8843 17.6945 17.9805C17.4614 18.2339 16.8063 18.8442 16.8063 20.0874C16.8063 21.3306 17.716 22.5321 17.8427 22.701C17.9694 22.8699 19.6326 25.4205 22.1784 26.515C22.7849 26.7751 23.2578 26.9305 23.6255 27.0476C24.2331 27.2402 24.7864 27.2121 25.2242 27.1479C25.7119 27.0758 26.7257 26.5375 26.9373 25.9475C27.1488 25.3574 27.1488 24.8518 27.0855 24.746C27.0221 24.6401 26.8513 24.5759 26.599 24.4498Z" fill="#E6332A"/>
</g>
<defs>
<clipPath id="clip0_101_30">
<rect width="21.25" height="21.25" fill="white" transform="translate(10.875 11.375)"/>
</clipPath>
</defs>
</svg>
