<svg width="44" height="44" viewBox="0 0 44 44" fill="none" xmlns="http://www.w3.org/2000/svg">
<path d="M0 21.12C0 11.1639 0 6.18591 3.09295 3.09295C6.18591 0 11.1639 0 21.12 0H22.88C32.8361 0 37.8141 0 40.9071 3.09295C44 6.18591 44 11.1639 44 21.12V22.88C44 32.8361 44 37.8141 40.9071 40.9071C37.8141 44 32.8361 44 22.88 44H21.12C11.1639 44 6.18591 44 3.09295 40.9071C0 37.8141 0 32.8361 0 22.88V21.12Z" fill="#FFC9C6"/>
<path d="M32.2915 17.2011C32.172 16.7789 31.9385 16.3938 31.6141 16.0842C31.2898 15.7747 30.8859 15.5514 30.4428 15.4366C28.7996 15.007 22.226 15 22.226 15C22.226 15 15.6535 14.993 14.0093 15.4037C13.5664 15.5237 13.1634 15.7501 12.8389 16.0612C12.5144 16.3723 12.2794 16.7576 12.1563 17.1801C11.7229 18.7448 11.7188 21.99 11.7188 21.99C11.7188 21.99 11.7146 25.2512 12.1448 26.7999C12.3861 27.6561 13.0943 28.3326 13.9946 28.5634C15.6545 28.993 22.2103 29 22.2103 29C22.2103 29 28.7839 29.007 30.427 28.5973C30.8703 28.4828 31.2746 28.26 31.5997 27.9511C31.9249 27.6421 32.1597 27.2577 32.2811 26.8359C32.7154 25.2722 32.7186 22.028 32.7186 22.028C32.7186 22.028 32.7396 18.7658 32.2915 17.2011ZM20.1233 24.9964L20.1286 19.0016L25.592 22.004L20.1233 24.9964Z" fill="#E6332A"/>
</svg>
