<svg width="48" height="48" viewBox="0 0 48 48" fill="none" xmlns="http://www.w3.org/2000/svg">
<rect width="48" height="48" rx="10" fill="white"/>
<path d="M23 27C23 25.7927 23 24.8182 25.4 24.8182H28.6C31 24.8182 31 24.0909 31 22.6364V21.1818C31 19.7273 31 19 28.6 19H27.8" stroke="#292D32" stroke-width="1.14062" stroke-linecap="round" stroke-linejoin="round"/>
<path d="M24.608 17H21.392C20.8693 18.625 20.8693 20.375 21.392 22H24.608C25.1307 20.375 25.1307 18.625 24.608 17Z" stroke="#292D32" stroke-width="1.14062" stroke-linecap="round" stroke-linejoin="round"/>
<path d="M21 17H20.25C18.75 17 18 17.8333 18 19.5C18 21.1667 18.75 22 20.25 22H21C20.25 20.3333 20.25 18.6667 21 17Z" stroke="#292D32" stroke-width="1.14062" stroke-linecap="round" stroke-linejoin="round"/>
<path d="M24.75 17H24C24.75 18.6667 24.75 20.3333 24 22H24.75C26.25 22 27 21.1667 27 19.5C27 17.8333 26.25 17 24.75 17Z" stroke="#292D32" stroke-width="1.14062" stroke-linecap="round" stroke-linejoin="round"/>
<path d="M22.125 32H22.875C24 32 24 31.1667 24 30.75V28.25C24 27.8333 24 27 22.875 27H22.125C21 27 21 27.8333 21 28.25V30.75C21 31.1667 21 32 22.125 32Z" stroke="#292D32" stroke-width="1.14062" stroke-linecap="round" stroke-linejoin="round"/>
</svg>
