<svg width="48" height="48" viewBox="0 0 48 48" fill="none" xmlns="http://www.w3.org/2000/svg">
<rect width="48" height="48" rx="10" fill="white"/>
<path d="M24.5 27C25.8807 27 27 25.8807 27 24.5C27 23.1193 25.8807 22 24.5 22C23.1193 22 22 23.1193 22 24.5C22 25.8807 23.1193 27 24.5 27Z" stroke="#292D32" stroke-width="1.125" stroke-miterlimit="10" stroke-linecap="round" stroke-linejoin="round"/>
<path d="M17 24.6526V23.3474C17 22.5761 17.6372 21.9383 18.4243 21.9383C19.7811 21.9383 20.3358 20.9891 19.6537 19.8247C19.2639 19.1573 19.4963 18.2896 20.1784 17.904L21.4753 17.1698C22.0675 16.8212 22.8321 17.0288 23.1844 17.6147L23.2669 17.7556C23.9415 18.92 25.051 18.92 25.7331 17.7556L25.8156 17.6147C26.1679 17.0288 26.9325 16.8212 27.5247 17.1698L28.8216 17.904C29.5037 18.2896 29.7361 19.1573 29.3463 19.8247C28.6642 20.9891 29.2189 21.9383 30.5757 21.9383C31.3553 21.9383 32 22.5687 32 23.3474V24.6526C32 25.4239 31.3628 26.0617 30.5757 26.0617C29.2189 26.0617 28.6642 27.0109 29.3463 28.1753C29.7361 28.8501 29.5037 29.7104 28.8216 30.096L27.5247 30.8302C26.9325 31.1788 26.1679 30.9712 25.8156 30.3853L25.7331 30.2444C25.0585 29.08 23.949 29.08 23.2669 30.2444L23.1844 30.3853C22.8321 30.9712 22.0675 31.1788 21.4753 30.8302L20.1784 30.096C19.4963 29.7104 19.2639 28.8427 19.6537 28.1753C20.3358 27.0109 19.7811 26.0617 18.4243 26.0617C17.6372 26.0617 17 25.4239 17 24.6526Z" stroke="#292D32" stroke-width="1.125" stroke-miterlimit="10" stroke-linecap="round" stroke-linejoin="round"/>
</svg>
