<svg width="48" height="48" viewBox="0 0 48 48" fill="none" xmlns="http://www.w3.org/2000/svg">
<rect width="48" height="48" rx="10" fill="white"/>
<path d="M17 26L18.875 24.6301C20.03 23.79 21.47 23.79 22.625 24.6301C23.78 25.4703 25.22 25.4703 26.375 24.6301C27.53 23.79 28.97 23.79 30.125 24.6301L32 26" stroke="#292D32" stroke-width="1.18176" stroke-miterlimit="10" stroke-linecap="round" stroke-linejoin="round"/>
<path d="M17 19L18.875 20.3699C20.03 21.21 21.47 21.21 22.625 20.3699C23.78 19.5297 25.22 19.5297 26.375 20.3699C27.53 21.21 28.97 21.21 30.125 20.3699L32 19" stroke="#292D32" stroke-width="1.18176" stroke-miterlimit="10" stroke-linecap="round" stroke-linejoin="round"/>
<path d="M17 31L18.875 29.6301C20.03 28.79 21.47 28.79 22.625 29.6301C23.78 30.4703 25.22 30.4703 26.375 29.6301C27.53 28.79 28.97 28.79 30.125 29.6301L32 31" stroke="#292D32" stroke-width="1.18176" stroke-miterlimit="10" stroke-linecap="round" stroke-linejoin="round"/>
</svg>
