<svg width="21" height="21" viewBox="0 0 21 21" fill="none" xmlns="http://www.w3.org/2000/svg">
<g clip-path="url(#clip0_1_516)">
<path d="M0 10.08C0 5.32823 0 2.95236 1.47618 1.47618C2.95236 0 5.32823 0 10.08 0H10.92C15.6718 0 18.0476 0 19.5238 1.47618C21 2.95236 21 5.32823 21 10.08V10.92C21 15.6718 21 18.0476 19.5238 19.5238C18.0476 21 15.6718 21 10.92 21H10.08C5.32823 21 2.95236 21 1.47618 19.5238C0 18.0476 0 15.6718 0 10.92V10.08Z" fill="black"/>
</g>
<path fill-rule="evenodd" clip-rule="evenodd" d="M5.68745 10.4439C8.3718 9.31496 10.1618 8.57067 11.0574 8.21106C13.6146 7.18431 14.146 7.00595 14.4923 7.00006C14.5685 6.99877 14.7388 7.01699 14.8491 7.10341C14.9423 7.17638 14.9679 7.27495 14.9802 7.34413C14.9924 7.41331 15.0077 7.57091 14.9956 7.69406C14.857 9.0996 14.2574 12.5105 13.9523 14.0847C13.8232 14.7508 13.5691 14.9742 13.323 14.996C12.7883 15.0435 12.3822 14.6549 11.8643 14.3272C11.0539 13.8143 10.5961 13.4951 9.80939 12.9947C8.90027 12.4163 9.48962 12.0985 10.0077 11.579C10.1433 11.443 12.4994 9.37434 12.545 9.18667C12.5507 9.1632 12.556 9.07572 12.5021 9.02952C12.4483 8.98332 12.3688 8.99912 12.3115 9.01168C12.2302 9.02949 10.9355 9.85556 8.42743 11.4899C8.05994 11.7335 7.72708 11.8522 7.42885 11.846C7.10007 11.8391 6.46764 11.6665 5.99749 11.519C5.42083 11.338 4.96251 11.2424 5.00242 10.935C5.02321 10.775 5.25155 10.6113 5.68745 10.4439Z" fill="white"/>
<defs>
<clipPath id="clip0_1_516">
<rect width="21" height="21" fill="white"/>
</clipPath>
</defs>
</svg>
