<svg width="21" height="21" viewBox="0 0 21 21" fill="none" xmlns="http://www.w3.org/2000/svg">
<g clip-path="url(#clip0_1_516)">
<path d="M0 10.08C0 5.32823 0 2.95236 1.47618 1.47618C2.95236 0 5.32823 0 10.08 0H10.92C15.6718 0 18.0476 0 19.5238 1.47618C21 2.95236 21 5.32823 21 10.08V10.92C21 15.6718 21 18.0476 19.5238 19.5238C18.0476 21 15.6718 21 10.92 21H10.08C5.32823 21 2.95236 21 1.47618 19.5238C0 18.0476 0 15.6718 0 10.92V10.08Z" fill="black"/>
</g>
<path d="M11.1378 15.12C6.25888 15.12 3.47606 11.8092 3.36011 6.29999H5.80403C5.8843 10.3436 7.68598 12.0564 9.11309 12.4095V6.29999H11.4144V9.78738C12.8237 9.63728 14.3041 8.0481 14.8036 6.29999H17.1049C16.7213 8.45422 15.1158 10.0434 13.9741 10.6967C15.1158 11.2265 16.9444 12.6126 17.6401 15.12H15.1069C14.5628 13.4425 13.2072 12.1447 11.4144 11.9681V15.12H11.1378Z" fill="white"/>
<defs>
<clipPath id="clip0_1_516">
<rect width="21" height="21" fill="white"/>
</clipPath>
</defs>
</svg>
