<svg width="21" height="21" viewBox="0 0 21 21" fill="none" xmlns="http://www.w3.org/2000/svg">
<g clip-path="url(#clip0_1_516)">
<path d="M0 10.08C0 5.32823 0 2.95236 1.47618 1.47618C2.95236 0 5.32823 0 10.08 0H10.92C15.6718 0 18.0476 0 19.5238 1.47618C21 2.95236 21 5.32823 21 10.08V10.92C21 15.6718 21 18.0476 19.5238 19.5238C18.0476 21 15.6718 21 10.92 21H10.08C5.32823 21 2.95236 21 1.47618 19.5238C0 18.0476 0 15.6718 0 10.92V10.08Z" fill="black"/>
</g>
<path fill-rule="evenodd" clip-rule="evenodd" d="M13.6887 7.30808C13.2735 6.89221 12.7796 6.56245 12.2355 6.33791C11.6914 6.11337 11.108 5.99852 10.519 6.00001C8.04908 6.00001 6.03844 8.00062 6.03744 10.4598C6.03744 11.2457 6.24359 12.0128 6.63544 12.6894L6 15L8.37554 14.3795C9.03264 14.7355 9.76881 14.9222 10.517 14.9225H10.519C12.9883 14.9225 14.999 12.9219 15 10.4627C15.0017 9.87677 14.8867 9.29626 14.6616 8.75479C14.4365 8.21331 14.1058 7.7216 13.6887 7.30808ZM10.519 14.1699H10.5175C9.85033 14.1699 9.19548 13.9913 8.62163 13.6527L8.48585 13.5722L7.0762 13.9403L7.45208 12.5726L7.36372 12.4325C6.99074 11.8416 6.79329 11.1577 6.79417 10.4598C6.79517 8.41594 8.46588 6.75316 10.5205 6.75316C11.0098 6.75208 11.4944 6.84759 11.9464 7.03417C12.3984 7.22076 12.8087 7.4947 13.1536 7.84015C13.5003 8.18396 13.7751 8.59275 13.9622 9.0429C14.1492 9.49305 14.2447 9.97563 14.2432 10.4627C14.2422 12.5066 12.5715 14.1699 10.519 14.1699ZM12.562 11.3932C12.4497 11.3371 11.8997 11.0678 11.7968 11.0306C11.6945 10.9933 11.6201 10.9749 11.5452 11.0862C11.4704 11.1975 11.2557 11.4484 11.1903 11.5229C11.1249 11.5974 11.0596 11.6064 10.9477 11.5507C10.8359 11.4951 10.475 11.3774 10.0472 10.9978C9.7143 10.7022 9.48968 10.3376 9.42429 10.2258C9.35889 10.114 9.4173 10.0539 9.4737 9.99824C9.52412 9.94856 9.58552 9.86808 9.64142 9.803C9.69733 9.73792 9.7158 9.69172 9.75324 9.6172C9.79067 9.54268 9.77221 9.4776 9.74375 9.42196C9.7158 9.36582 9.49167 8.81735 9.39833 8.59429C9.30798 8.37818 9.21563 8.407 9.14675 8.40402C9.07541 8.40111 9.00401 8.39979 8.93261 8.40004C8.87583 8.40148 8.81996 8.41458 8.76851 8.43852C8.71706 8.46246 8.67113 8.49672 8.63361 8.53915C8.53078 8.65093 8.24176 8.92019 8.24176 9.46866C8.24176 10.0171 8.64309 10.5472 8.699 10.6217C8.7549 10.6962 9.48868 11.8215 10.6118 12.3044C10.8794 12.4191 11.088 12.4877 11.2502 12.5394C11.5183 12.6243 11.7624 12.6119 11.9556 12.5836C12.1707 12.5518 12.618 12.3143 12.7113 12.054C12.8046 11.7937 12.8046 11.5706 12.7767 11.5239C12.7487 11.4772 12.6734 11.4489 12.562 11.3932Z" fill="white"/>
<defs>
<clipPath id="clip0_1_516">
<rect width="21" height="21" fill="white"/>
</clipPath>
</defs>
</svg>
