<svg width="47" height="21" viewBox="0 0 47 21" fill="none" xmlns="http://www.w3.org/2000/svg">
<g clip-path="url(#clip0_1_512)">
<path d="M26 10.08C26 5.32823 26 2.95236 27.4762 1.47618C28.9524 0 31.3282 0 36.08 0H36.92C41.6718 0 44.0476 0 45.5238 1.47618C47 2.95236 47 5.32823 47 10.08V10.92C47 15.6718 47 18.0476 45.5238 19.5238C44.0476 21 41.6718 21 36.92 21H36.08C31.3282 21 28.9524 21 27.4762 19.5238C26 18.0476 26 15.6718 26 10.92V10.08Z" fill="black"/>
</g>
<path fill-rule="evenodd" clip-rule="evenodd" d="M39.6887 7.30808C39.2735 6.89221 38.7796 6.56245 38.2355 6.33791C37.6914 6.11337 37.108 5.99852 36.519 6.00001C34.0491 6.00001 32.0384 8.00062 32.0374 10.4598C32.0374 11.2457 32.2436 12.0128 32.6354 12.6894L32 15L34.3755 14.3795C35.0326 14.7355 35.7688 14.9222 36.517 14.9225H36.519C38.9883 14.9225 40.999 12.9219 41 10.4627C41.0017 9.87677 40.8867 9.29626 40.6616 8.75479C40.4365 8.21331 40.1058 7.7216 39.6887 7.30808ZM36.519 14.1699H36.5175C35.8503 14.1699 35.1955 13.9913 34.6216 13.6527L34.4859 13.5722L33.0762 13.9403L33.4521 12.5726L33.3637 12.4325C32.9907 11.8416 32.7933 11.1577 32.7942 10.4598C32.7952 8.41594 34.4659 6.75316 36.5205 6.75316C37.0098 6.75208 37.4944 6.84759 37.9464 7.03417C38.3984 7.22076 38.8087 7.4947 39.1536 7.84015C39.5003 8.18396 39.7751 8.59275 39.9622 9.0429C40.1492 9.49305 40.2447 9.97563 40.2432 10.4627C40.2422 12.5066 38.5715 14.1699 36.519 14.1699ZM38.562 11.3932C38.4497 11.3371 37.8997 11.0678 37.7968 11.0306C37.6945 10.9933 37.6201 10.9749 37.5452 11.0862C37.4704 11.1975 37.2557 11.4484 37.1903 11.5229C37.1249 11.5974 37.0596 11.6064 36.9477 11.5507C36.8359 11.4951 36.475 11.3774 36.0472 10.9978C35.7143 10.7022 35.4897 10.3376 35.4243 10.2258C35.3589 10.114 35.4173 10.0539 35.4737 9.99824C35.5241 9.94856 35.5855 9.86808 35.6414 9.803C35.6973 9.73792 35.7158 9.69172 35.7532 9.6172C35.7907 9.54268 35.7722 9.4776 35.7438 9.42196C35.7158 9.36582 35.4917 8.81735 35.3983 8.59429C35.308 8.37818 35.2156 8.407 35.1467 8.40402C35.0754 8.40111 35.004 8.39979 34.9326 8.40004C34.8758 8.40148 34.82 8.41458 34.7685 8.43852C34.7171 8.46246 34.6711 8.49672 34.6336 8.53915C34.5308 8.65093 34.2418 8.92019 34.2418 9.46866C34.2418 10.0171 34.6431 10.5472 34.699 10.6217C34.7549 10.6962 35.4887 11.8215 36.6118 12.3044C36.8794 12.4191 37.088 12.4877 37.2502 12.5394C37.5183 12.6243 37.7624 12.6119 37.9556 12.5836C38.1707 12.5518 38.618 12.3143 38.7113 12.054C38.8046 11.7937 38.8046 11.5706 38.7767 11.5239C38.7487 11.4772 38.6734 11.4489 38.562 11.3932Z" fill="white"/>
<g clip-path="url(#clip1_1_512)">
<path d="M0 10.08C0 5.32823 0 2.95236 1.47618 1.47618C2.95236 0 5.32823 0 10.08 0H10.92C15.6718 0 18.0476 0 19.5238 1.47618C21 2.95236 21 5.32823 21 10.08V10.92C21 15.6718 21 18.0476 19.5238 19.5238C18.0476 21 15.6718 21 10.92 21H10.08C5.32823 21 2.95236 21 1.47618 19.5238C0 18.0476 0 15.6718 0 10.92V10.08Z" fill="black"/>
</g>
<path fill-rule="evenodd" clip-rule="evenodd" d="M5.68745 10.4439C8.3718 9.31496 10.1618 8.57067 11.0574 8.21106C13.6146 7.18431 14.146 7.00595 14.4923 7.00006C14.5685 6.99877 14.7388 7.01699 14.8491 7.10341C14.9423 7.17638 14.9679 7.27495 14.9802 7.34413C14.9924 7.41331 15.0077 7.57091 14.9956 7.69406C14.857 9.0996 14.2574 12.5105 13.9523 14.0847C13.8232 14.7508 13.5691 14.9742 13.323 14.996C12.7883 15.0435 12.3822 14.6549 11.8643 14.3272C11.0539 13.8143 10.5961 13.4951 9.80939 12.9947C8.90027 12.4163 9.48962 12.0985 10.0077 11.579C10.1433 11.443 12.4994 9.37434 12.545 9.18667C12.5507 9.1632 12.556 9.07572 12.5021 9.02952C12.4483 8.98332 12.3688 8.99912 12.3115 9.01168C12.2302 9.02949 10.9355 9.85556 8.42743 11.4899C8.05994 11.7335 7.72708 11.8522 7.42885 11.846C7.10007 11.8391 6.46764 11.6665 5.99749 11.519C5.42083 11.338 4.96251 11.2424 5.00242 10.935C5.02321 10.775 5.25155 10.6113 5.68745 10.4439Z" fill="white"/>
<defs>
<clipPath id="clip0_1_512">
<rect width="21" height="21" fill="white" transform="translate(26)"/>
</clipPath>
<clipPath id="clip1_1_512">
<rect width="21" height="21" fill="white"/>
</clipPath>
</defs>
</svg>
