<svg width="246" height="22" viewBox="0 0 246 22" fill="none" xmlns="http://www.w3.org/2000/svg">
<path d="M19.3555 18H15.3259V4.0038H7.69645L7.56213 10.693C7.5084 13.1645 6.98903 15.0002 6.00401 16.2001C5.019 17.4 3.53252 18 1.54457 18H0.120773V14.3733H0.792376C1.90276 14.3733 2.68182 14.0778 3.12955 13.4868C3.57729 12.8958 3.81011 11.8571 3.82802 10.3706L3.98921 0.377143H19.3555V18ZM33.2428 18.3224C31.1294 18.3224 29.2848 17.9552 27.7087 17.2209C26.1327 16.4867 24.9059 15.439 24.0284 14.0778C23.1687 12.7167 22.7389 11.1317 22.7389 9.32289V9.08111C22.7389 7.27226 23.1687 5.68728 24.0284 4.32617C24.9059 2.96505 26.1327 1.91735 27.7087 1.18307C29.3027 0.43087 31.1474 0.0547727 33.2428 0.0547727C35.3561 0.0547727 37.2007 0.43087 38.7768 1.18307C40.3528 1.91735 41.5706 2.96505 42.4303 4.32617C43.2899 5.68728 43.7198 7.27226 43.7198 9.08111V9.32289C43.7198 11.1317 43.2899 12.7167 42.4303 14.0778C41.5706 15.439 40.3528 16.4867 38.7768 17.2209C37.2007 17.9552 35.3561 18.3224 33.2428 18.3224ZM33.2428 14.5883C35.3202 14.5883 36.8963 14.1405 37.9708 13.2451C39.0633 12.3496 39.6095 11.0601 39.6095 9.37662V9.05425C39.6095 7.37077 39.0544 6.07233 37.944 5.15895C36.8515 4.24557 35.2844 3.78888 33.2428 3.78888C31.1832 3.78888 29.5982 4.24557 28.4878 5.15895C27.3953 6.07233 26.8491 7.37077 26.8491 9.05425V9.37662C26.8491 11.0601 27.3953 12.3496 28.4878 13.2451C29.5982 14.1405 31.1832 14.5883 33.2428 14.5883ZM66.4976 14.3733V21.5729H62.468V18H48.418V21.5729H44.3884V14.3733H46.645C47.5942 12.869 48.0957 10.9526 48.1494 8.62443L48.3106 0.377143H63.7843V14.3733H66.4976ZM51.8835 8.70502C51.8298 10.9437 51.4 12.8331 50.594 14.3733H59.7547V4.0038H51.991L51.8835 8.70502ZM87.5909 0.995017L80.0421 8.91993L87.2148 17.3821V18H82.5674L76.5498 10.9079H73.3798V18H69.3502V0.377143H73.3798V7.28122H76.4155L82.7823 0.377143H87.5909V0.995017ZM109.209 17.3821V18H105.18L103.568 14.3465H94.7565L93.1447 18H89.1151V17.3821L96.9325 0.377143H101.392L109.209 17.3821ZM102.037 10.8541L99.1622 4.2993L96.2878 10.8541H102.037ZM135.142 0.377143V4.0038H124.799V18H120.77V0.377143H135.142ZM145.736 18.3224C143.623 18.3224 141.778 17.9552 140.202 17.2209C138.626 16.4867 137.399 15.439 136.522 14.0778C135.662 12.7167 135.232 11.1317 135.232 9.32289V9.08111C135.232 7.27226 135.662 5.68728 136.522 4.32617C137.399 2.96505 138.626 1.91735 140.202 1.18307C141.796 0.43087 143.641 0.0547727 145.736 0.0547727C147.85 0.0547727 149.694 0.43087 151.27 1.18307C152.846 1.91735 154.064 2.96505 154.924 4.32617C155.783 5.68728 156.213 7.27226 156.213 9.08111V9.32289C156.213 11.1317 155.783 12.7167 154.924 14.0778C154.064 15.439 152.846 16.4867 151.27 17.2209C149.694 17.9552 147.85 18.3224 145.736 18.3224ZM145.736 14.5883C147.814 14.5883 149.39 14.1405 150.464 13.2451C151.557 12.3496 152.103 11.0601 152.103 9.37662V9.05425C152.103 7.37077 151.548 6.07233 150.437 5.15895C149.345 4.24557 147.778 3.78888 145.736 3.78888C143.677 3.78888 142.092 4.24557 140.981 5.15895C139.889 6.07233 139.343 7.37077 139.343 9.05425V9.37662C139.343 11.0601 139.889 12.3496 140.981 13.2451C142.092 14.1405 143.677 14.5883 145.736 14.5883ZM157.09 4.0038V0.377143H174.901V4.0038H168.024V18H163.968V4.0038H157.09ZM186.295 18.3224C184.181 18.3224 182.337 17.9552 180.761 17.2209C179.185 16.4867 177.958 15.439 177.08 14.0778C176.221 12.7167 175.791 11.1317 175.791 9.32289V9.08111C175.791 7.27226 176.221 5.68728 177.08 4.32617C177.958 2.96505 179.185 1.91735 180.761 1.18307C182.355 0.43087 184.199 0.0547727 186.295 0.0547727C188.408 0.0547727 190.253 0.43087 191.829 1.18307C193.405 1.91735 194.623 2.96505 195.482 4.32617C196.342 5.68728 196.772 7.27226 196.772 9.08111V9.32289C196.772 11.1317 196.342 12.7167 195.482 14.0778C194.623 15.439 193.405 16.4867 191.829 17.2209C190.253 17.9552 188.408 18.3224 186.295 18.3224ZM186.295 14.5883C188.372 14.5883 189.948 14.1405 191.023 13.2451C192.115 12.3496 192.662 11.0601 192.662 9.37662V9.05425C192.662 7.37077 192.106 6.07233 190.996 5.15895C189.903 4.24557 188.336 3.78888 186.295 3.78888C184.235 3.78888 182.65 4.24557 181.54 5.15895C180.447 6.07233 179.901 7.37077 179.901 9.05425V9.37662C179.901 11.0601 180.447 12.3496 181.54 13.2451C182.65 14.1405 184.235 14.5883 186.295 14.5883ZM215.226 8.97366C216.05 9.34976 216.677 9.86017 217.107 10.5049C217.536 11.1497 217.751 11.9018 217.751 12.7615V13.057C217.751 14.5793 217.16 15.7882 215.978 16.6837C214.796 17.5612 213.193 18 211.17 18H200.155V0.377143H210.659C212.737 0.377143 214.34 0.789059 215.468 1.61289C216.614 2.41882 217.187 3.55606 217.187 5.02463V5.32014C217.187 6.89617 216.534 8.11401 215.226 8.97366ZM204.185 3.89634V7.4424H210.632C212.298 7.4424 213.131 6.89617 213.131 5.80369V5.53505C213.131 4.99777 212.916 4.59481 212.486 4.32617C212.074 4.03962 211.465 3.89634 210.659 3.89634H204.185ZM213.641 12.466C213.641 11.3556 212.799 10.8004 211.116 10.8004H204.185V14.4808H211.116C211.922 14.4808 212.54 14.3286 212.97 14.0241C213.417 13.7197 213.641 13.2898 213.641 12.7346V12.466ZM238.624 17.3821V18H234.595L232.983 14.3465H224.171L222.559 18H218.53V17.3821L226.347 0.377143H230.807L238.624 17.3821ZM231.451 10.8541L228.577 4.2993L225.702 10.8541H231.451ZM243.393 18.3224C242.713 18.3224 242.149 18.1164 241.701 17.7045C241.271 17.2747 241.056 16.7284 241.056 16.0658C241.056 15.4031 241.271 14.8659 241.701 14.4539C242.149 14.0241 242.713 13.8092 243.393 13.8092C244.092 13.8092 244.656 14.0241 245.086 14.4539C245.516 14.8659 245.731 15.4031 245.731 16.0658C245.731 16.7463 245.516 17.2926 245.086 17.7045C244.656 18.1164 244.092 18.3224 243.393 18.3224Z" fill="#DEDEDE"/>
</svg>
